<svg xmlns="http://www.w3.org/2000/svg" xmlns:xlink="http://www.w3.org/1999/xlink" width="500" zoomAndPan="magnify" viewBox="0 0 375 374.999991" height="500" preserveAspectRatio="xMidYMid meet" version="1.0"><defs><g/><clipPath id="067365cf6a"><path d="M 76.023438 151.171875 L 147.800781 151.171875 L 147.800781 223.921875 L 76.023438 223.921875 Z M 76.023438 151.171875 " clip-rule="nonzero"/></clipPath><clipPath id="8299b1c717"><path d="M 131 151.171875 L 275 151.171875 L 275 172.921875 L 131 172.921875 Z M 131 151.171875 " clip-rule="nonzero"/></clipPath></defs><g clip-path="url(#067365cf6a)"><path fill="#1c1a1a" d="M 92.917969 164.53125 L 91.433594 164.503906 L 88.464844 164.457031 L 85.496094 164.40625 L 84.011719 164.378906 L 83.277344 164.367188 L 82.890625 164.367188 C 82.703125 164.367188 82.515625 164.378906 82.34375 164.378906 C 81.605469 164.441406 80.871094 164.628906 80.171875 164.914062 C 79.488281 165.203125 78.851562 165.625 78.300781 166.125 C 77.753906 166.621094 77.28125 167.207031 76.90625 167.867188 C 76.53125 168.527344 76.28125 169.246094 76.132812 169.980469 C 76.109375 170.167969 76.070312 170.355469 76.058594 170.53125 C 76.046875 170.714844 76.03125 170.902344 76.03125 171.078125 L 76.019531 171.847656 L 76.007812 173.332031 L 75.984375 176.292969 L 75.921875 182.207031 L 75.859375 194.046875 L 75.859375 205.898438 L 75.882812 211.808594 L 75.894531 214.773438 L 75.894531 215.917969 C 75.910156 216.105469 75.910156 216.304688 75.921875 216.492188 C 76.007812 217.238281 76.207031 217.972656 76.53125 218.667969 C 77.15625 220.050781 78.265625 221.171875 79.585938 221.867188 C 80.246094 222.21875 80.984375 222.453125 81.71875 222.554688 C 82.09375 222.617188 82.46875 222.628906 82.839844 222.640625 L 83.578125 222.628906 L 89.523438 222.453125 L 92.492188 222.367188 L 93.976562 222.316406 C 94.238281 222.316406 94.4375 222.304688 94.648438 222.304688 C 94.863281 222.304688 95.074219 222.304688 95.273438 222.316406 C 96.121094 222.339844 96.957031 222.464844 97.792969 222.691406 C 98.003906 222.738281 98.203125 222.800781 98.402344 222.863281 L 99.113281 223.074219 L 99.863281 223.300781 C 100.136719 223.375 100.398438 223.449219 100.671875 223.511719 C 101.757812 223.773438 102.878906 223.910156 104 223.921875 C 104.140625 223.921875 104.277344 223.921875 104.414062 223.921875 L 104.8125 223.910156 L 105.546875 223.898438 L 107.03125 223.847656 L 112.953125 223.671875 L 118.878906 223.472656 L 120.359375 223.410156 L 121.097656 223.386719 L 121.484375 223.375 L 121.894531 223.363281 C 123.003906 223.289062 124.089844 223.074219 125.125 222.703125 C 126.171875 222.355469 127.132812 221.855469 128.042969 221.257812 C 128.214844 221.144531 128.515625 220.921875 128.839844 220.6875 C 129.589844 220.136719 130.484375 219.828125 131.410156 219.777344 C 132.894531 219.703125 134.402344 219.640625 135.898438 219.554688 L 141.820312 219.230469 C 143.804688 219.105469 145.761719 219.003906 147.742188 218.84375 C 145.761719 218.707031 143.777344 218.59375 141.820312 218.457031 L 135.898438 218.144531 C 134.488281 218.070312 133.09375 218.007812 131.671875 217.945312 C 131.382812 217.933594 130.222656 217.921875 129.761719 218.023438 C 128.988281 218.207031 127.09375 219.214844 126.859375 219.339844 C 126.070312 219.765625 125.25 220.113281 124.386719 220.324219 C 123.527344 220.535156 122.65625 220.648438 121.78125 220.648438 L 121.457031 220.648438 L 121.085938 220.636719 L 120.347656 220.609375 L 118.863281 220.546875 L 112.941406 220.351562 L 107.019531 220.175781 L 105.535156 220.125 L 104.800781 220.113281 L 104.464844 220.101562 C 104.351562 220.101562 104.25 220.089844 104.140625 220.089844 C 103.277344 220.027344 102.429688 219.890625 101.621094 219.664062 C 101.421875 219.601562 101.207031 219.539062 101.007812 219.476562 L 100.347656 219.253906 L 99.664062 219.003906 C 99.402344 218.917969 99.125 218.820312 98.863281 218.742188 C 97.792969 218.421875 96.667969 218.207031 95.546875 218.097656 C 95.273438 218.070312 94.972656 218.046875 94.699219 218.046875 C 94.425781 218.035156 94.113281 218.035156 93.890625 218.035156 L 92.417969 218.035156 L 89.449219 218.023438 L 83.527344 218.007812 L 82.792969 218.007812 C 82.667969 217.996094 82.566406 217.996094 82.441406 217.960938 C 82.21875 217.910156 81.980469 217.835938 81.769531 217.710938 C 81.371094 217.460938 81.019531 217.101562 80.847656 216.664062 C 80.757812 216.453125 80.710938 216.214844 80.671875 215.992188 C 80.671875 215.929688 80.671875 215.867188 80.671875 215.816406 L 80.671875 214.796875 L 80.695312 211.835938 L 80.785156 205.921875 L 80.847656 194.070312 L 80.847656 182.21875 L 80.820312 176.304688 L 80.808594 173.34375 L 80.796875 171.863281 L 80.796875 171.140625 C 80.796875 171.078125 80.796875 171.015625 80.796875 170.953125 C 80.796875 170.890625 80.808594 170.828125 80.808594 170.777344 C 80.921875 169.84375 81.757812 169.035156 82.730469 168.9375 C 82.792969 168.9375 82.855469 168.9375 82.917969 168.925781 C 82.929688 168.925781 82.964844 168.925781 82.992188 168.925781 L 83.265625 168.925781 L 84 168.910156 L 85.484375 168.886719 L 88.453125 168.835938 L 91.421875 168.789062 L 92.902344 168.761719 L 93.640625 168.75 L 94.089844 168.738281 C 94.363281 168.726562 94.625 168.6875 94.886719 168.613281 C 95.945312 168.351562 96.855469 167.617188 97.34375 166.671875 C 97.40625 166.546875 97.46875 166.421875 97.515625 166.296875 C 97.542969 166.222656 97.542969 166.222656 97.566406 166.171875 L 97.59375 166.085938 L 97.71875 165.738281 L 97.964844 165.050781 L 98.964844 162.265625 L 99.960938 159.476562 L 100.449219 158.082031 L 100.695312 157.371094 L 100.757812 157.199219 L 100.808594 157.074219 C 100.835938 157 100.871094 156.898438 100.898438 156.847656 C 101.171875 156.226562 101.621094 155.667969 102.167969 155.253906 C 102.742188 154.84375 103.378906 154.546875 104.101562 154.457031 C 104.1875 154.445312 104.277344 154.445312 104.363281 154.433594 L 104.5 154.421875 C 104.550781 154.421875 104.625 154.421875 104.6875 154.421875 L 105.421875 154.398438 L 106.90625 154.347656 L 109.886719 154.285156 L 115.824219 154.046875 L 117.304688 153.984375 C 117.78125 153.972656 118.328125 153.9375 118.703125 153.9375 C 119.101562 153.949219 119.511719 154.011719 119.914062 154.121094 C 120.3125 154.246094 120.699219 154.398438 121.058594 154.582031 C 121.410156 154.78125 121.769531 155.042969 122.070312 155.316406 C 122.382812 155.605469 122.65625 155.929688 122.878906 156.289062 C 123.105469 156.636719 123.292969 157.035156 123.453125 157.433594 L 123.953125 158.828125 L 125.933594 164.417969 C 126.609375 166.273438 127.269531 168.140625 127.980469 169.980469 C 127.566406 168.054688 127.105469 166.125 126.65625 164.207031 L 125.273438 158.441406 L 124.9375 157 C 124.800781 156.464844 124.601562 155.941406 124.339844 155.429688 C 124.078125 154.945312 123.753906 154.457031 123.367188 154.035156 C 122.980469 153.625 122.554688 153.238281 122.09375 152.902344 C 121.621094 152.578125 121.109375 152.316406 120.5625 152.105469 C 120.023438 151.90625 119.4375 151.78125 118.878906 151.707031 C 118.253906 151.644531 117.816406 151.644531 117.304688 151.632812 L 115.824219 151.570312 L 109.898438 151.359375 L 106.933594 151.246094 L 105.449219 151.195312 L 104.710938 151.171875 L 104.300781 151.171875 C 104.152344 151.171875 103.976562 151.171875 103.828125 151.183594 C 102.566406 151.273438 101.320312 151.707031 100.25 152.390625 C 99.1875 153.101562 98.277344 154.074219 97.679688 155.230469 C 97.605469 155.367188 97.542969 155.515625 97.46875 155.679688 L 97.378906 155.890625 L 97.304688 156.066406 L 97.019531 156.75 L 96.445312 158.117188 L 95.308594 160.859375 L 94.027344 163.796875 C 93.8125 164.257812 93.390625 164.554688 92.917969 164.53125 " fill-opacity="1" fill-rule="nonzero"/></g><path fill="#000000" d="M 128.304688 184.859375 C 127.480469 183.191406 126.359375 181.597656 124.925781 180.265625 L 124.386719 179.78125 C 124.203125 179.628906 124.015625 179.46875 123.816406 179.320312 C 123.441406 178.996094 123.03125 178.734375 122.628906 178.449219 C 121.808594 177.910156 120.945312 177.425781 120.023438 177.015625 C 119.574219 176.804688 119.101562 176.640625 118.628906 176.46875 C 118.402344 176.382812 118.152344 176.320312 117.90625 176.242188 C 117.65625 176.183594 117.429688 176.09375 117.179688 176.042969 C 116.695312 175.933594 116.195312 175.796875 115.699219 175.734375 C 115.449219 175.683594 115.1875 175.660156 114.949219 175.609375 L 114.203125 175.535156 C 113.191406 175.445312 112.15625 175.445312 111.144531 175.535156 C 110.125 175.621094 109.101562 175.785156 108.089844 176.042969 C 107.09375 176.304688 106.109375 176.640625 105.148438 177.066406 C 104.199219 177.476562 103.277344 178 102.40625 178.570312 C 100.636719 179.703125 99.101562 181.171875 97.804688 182.828125 C 97.144531 183.652344 96.59375 184.558594 96.082031 185.480469 C 95.574219 186.414062 95.148438 187.386719 94.8125 188.394531 C 94.476562 189.390625 94.214844 190.433594 94.039062 191.46875 C 93.863281 192.515625 93.777344 193.574219 93.777344 194.628906 C 93.789062 195.6875 93.863281 196.746094 94.039062 197.792969 C 94.214844 198.839844 94.460938 199.871094 94.8125 200.867188 C 95.148438 201.875 95.585938 202.847656 96.082031 203.78125 C 96.59375 204.714844 97.15625 205.609375 97.804688 206.433594 C 100.386719 209.753906 104.0625 212.207031 108.089844 213.214844 C 109.089844 213.476562 110.125 213.628906 111.144531 213.726562 C 112.167969 213.8125 113.203125 213.8125 114.214844 213.726562 L 114.960938 213.652344 C 115.210938 213.628906 115.472656 213.578125 115.710938 213.527344 C 116.222656 213.464844 116.707031 213.339844 117.195312 213.214844 C 117.441406 213.167969 117.679688 213.078125 117.917969 213.003906 C 118.167969 212.929688 118.390625 212.867188 118.640625 212.78125 C 119.113281 212.59375 119.589844 212.445312 120.035156 212.234375 C 120.960938 211.835938 121.820312 211.324219 122.644531 210.800781 C 123.042969 210.515625 123.453125 210.253906 123.828125 209.929688 C 124.015625 209.78125 124.214844 209.617188 124.402344 209.46875 L 124.9375 208.984375 C 126.347656 207.664062 127.46875 206.070312 128.316406 204.390625 C 125.773438 207.152344 122.605469 209.097656 119.226562 209.929688 C 117.554688 210.378906 115.835938 210.515625 114.140625 210.441406 C 112.457031 210.367188 110.808594 210.015625 109.25 209.457031 C 107.703125 208.871094 106.257812 208.085938 104.960938 207.089844 C 103.675781 206.097656 102.554688 204.914062 101.632812 203.605469 C 100.722656 202.285156 99.972656 200.84375 99.523438 199.324219 C 99.300781 198.578125 99.101562 197.792969 98.976562 197.007812 C 98.851562 196.222656 98.800781 195.425781 98.789062 194.628906 C 98.789062 193.832031 98.851562 193.039062 98.964844 192.253906 C 99.089844 191.46875 99.277344 190.683594 99.511719 189.9375 C 99.972656 188.40625 100.710938 186.976562 101.621094 185.65625 C 102.542969 184.335938 103.675781 183.152344 104.949219 182.15625 C 106.234375 181.160156 107.679688 180.363281 109.238281 179.792969 C 110.785156 179.21875 112.429688 178.882812 114.140625 178.808594 C 115.824219 178.734375 117.542969 178.871094 119.226562 179.320312 C 122.605469 180.140625 125.746094 182.105469 128.304688 184.859375 " fill-opacity="1" fill-rule="nonzero"/><path fill="#000000" d="M 107.730469 188.367188 C 108.117188 187.921875 108.503906 187.496094 108.9375 187.113281 C 109.140625 186.914062 109.363281 186.726562 109.601562 186.539062 C 109.824219 186.363281 110.0625 186.191406 110.285156 186.027344 C 110.761719 185.703125 111.257812 185.445312 111.757812 185.207031 C 112.269531 184.984375 112.78125 184.757812 113.328125 184.621094 C 114.386719 184.296875 115.5 184.199219 116.570312 184.222656 C 117.65625 184.285156 118.714844 184.484375 119.710938 184.832031 C 120.710938 185.21875 121.632812 185.742188 122.480469 186.402344 L 122.792969 186.652344 C 122.90625 186.726562 123.003906 186.824219 123.078125 186.914062 C 123.265625 187.097656 123.453125 187.285156 123.652344 187.460938 L 124.164062 188.058594 L 124.289062 188.207031 L 124.402344 188.382812 L 124.625 188.707031 C 125.210938 189.578125 125.683594 190.511719 125.972656 191.53125 C 126.257812 192.527344 126.421875 193.574219 126.433594 194.628906 C 126.421875 195.675781 126.257812 196.710938 125.972656 197.730469 C 125.683594 198.738281 125.1875 199.671875 124.625 200.554688 L 124.402344 200.878906 L 124.289062 201.054688 L 124.164062 201.203125 L 123.652344 201.800781 C 123.464844 201.988281 123.265625 202.175781 123.078125 202.347656 C 122.992188 202.4375 122.878906 202.535156 122.792969 202.609375 L 122.480469 202.859375 C 121.65625 203.507812 120.710938 204.042969 119.710938 204.429688 C 118.714844 204.777344 117.644531 204.976562 116.570312 205.039062 C 115.484375 205.0625 114.386719 204.949219 113.328125 204.640625 C 112.792969 204.503906 112.28125 204.289062 111.757812 204.054688 C 111.246094 203.804688 110.761719 203.53125 110.285156 203.234375 C 110.035156 203.082031 109.824219 202.898438 109.601562 202.722656 C 109.386719 202.535156 109.152344 202.375 108.9375 202.148438 C 108.492188 201.765625 108.128906 201.339844 107.730469 200.890625 C 108.265625 201.9375 108.988281 202.921875 109.875 203.730469 L 110.210938 204.042969 C 110.324219 204.128906 110.4375 204.230469 110.558594 204.328125 C 110.785156 204.527344 111.046875 204.675781 111.296875 204.863281 C 111.820312 205.1875 112.355469 205.484375 112.929688 205.734375 C 114.0625 206.246094 115.296875 206.519531 116.558594 206.605469 C 117.816406 206.667969 119.089844 206.542969 120.324219 206.207031 C 121.558594 205.859375 122.71875 205.285156 123.765625 204.550781 L 124.152344 204.277344 C 124.277344 204.191406 124.414062 204.089844 124.539062 203.992188 L 125.261719 203.34375 C 125.472656 203.121094 125.683594 202.871094 125.921875 202.636719 L 126.097656 202.449219 L 126.246094 202.261719 L 126.535156 201.875 C 126.621094 201.75 126.734375 201.613281 126.820312 201.488281 L 127.070312 201.078125 C 127.242188 200.804688 127.40625 200.53125 127.542969 200.234375 C 127.679688 199.945312 127.832031 199.648438 127.953125 199.359375 L 128.292969 198.453125 C 128.679688 197.21875 128.878906 195.9375 128.890625 194.65625 C 128.863281 193.375 128.679688 192.078125 128.292969 190.859375 L 127.953125 189.949219 C 127.832031 189.664062 127.679688 189.363281 127.542969 189.078125 C 127.417969 188.792969 127.230469 188.507812 127.070312 188.230469 L 126.820312 187.820312 C 126.734375 187.683594 126.632812 187.558594 126.535156 187.433594 L 126.246094 187.050781 L 126.097656 186.863281 L 125.921875 186.675781 C 125.710938 186.453125 125.5 186.203125 125.261719 185.964844 L 124.539062 185.320312 C 124.414062 185.207031 124.289062 185.121094 124.152344 185.03125 L 123.765625 184.757812 C 122.71875 184.023438 121.558594 183.453125 120.324219 183.101562 C 119.089844 182.765625 117.816406 182.644531 116.558594 182.703125 C 115.296875 182.78125 114.078125 183.078125 112.929688 183.578125 C 112.355469 183.824219 111.820312 184.125 111.296875 184.449219 C 110.785156 184.796875 110.296875 185.15625 109.863281 185.582031 C 108.988281 186.363281 108.265625 187.324219 107.730469 188.367188 " fill-opacity="1" fill-rule="nonzero"/><g clip-path="url(#8299b1c717)"><path fill="#000000" d="M 132.199219 172.558594 C 141.066406 167.925781 151.414062 166.859375 161.25 166.617188 C 171.835938 166.34375 182.394531 167.042969 192.921875 168.019531 C 203.570312 169.023438 214.191406 170.273438 224.871094 171.035156 C 230.179688 171.398438 235.519531 171.613281 240.859375 171.644531 C 245.867188 171.671875 250.933594 171.703125 255.941406 171.09375 C 260.980469 170.484375 266.015625 169.054688 269.878906 165.550781 C 273.257812 162.472656 275.699219 157.78125 274.765625 153.121094 C 274.375 151.171875 271.355469 151.628906 271.355469 153.578125 C 271.386719 157.722656 269.789062 161.226562 266.621094 163.84375 C 263.0625 166.800781 258.292969 167.835938 253.859375 168.382812 C 243.785156 169.570312 233.527344 169.175781 223.421875 168.476562 C 202.910156 167.011719 182.457031 163.632812 161.851562 164.363281 C 151.355469 164.699219 140.734375 165.917969 131.59375 171.519531 C 130.929688 171.917969 131.503906 172.921875 132.199219 172.558594 Z M 132.199219 172.558594 " fill-opacity="1" fill-rule="nonzero"/></g><path fill="#000000" d="M 136.179688 165.792969 C 145.167969 162.472656 154.460938 161.683594 163.964844 161.621094 C 164.476562 161.621094 164.65625 160.738281 164.082031 160.675781 C 154.582031 159.246094 144.6875 161.53125 135.96875 165.398438 C 135.789062 165.488281 135.9375 165.886719 136.179688 165.792969 Z M 136.179688 165.792969 " fill-opacity="1" fill-rule="nonzero"/><path fill="#000000" d="M 266.347656 171.125 C 269.820312 170.636719 273.015625 168.960938 275.429688 166.433594 C 276.667969 165.15625 277.722656 163.691406 278.445312 162.078125 C 279.050781 160.796875 280.164062 158.515625 279.261719 157.203125 C 278.839844 156.59375 278.113281 156.503906 277.570312 156.992188 C 276.546875 157.875 276.695312 159.882812 276.273438 161.164062 C 275.792969 162.625 275.097656 163.996094 274.222656 165.246094 C 272.261719 167.957031 269.457031 169.9375 266.257812 170.820312 C 266.046875 170.851562 266.136719 171.15625 266.347656 171.125 Z M 266.347656 171.125 " fill-opacity="1" fill-rule="nonzero"/><g fill="#000000" fill-opacity="1"><g transform="translate(139.651212, 189.537204)"><g><path d="M 1.316406 0 L 13.386719 0 C 13.328125 -0.765625 13.328125 -1.378906 13.386719 -2.296875 C 11.320312 -1.941406 6.335938 -1.714844 4.085938 -1.714844 C 4.007812 -4.484375 4.039062 -9.242188 4.191406 -11.398438 C 3.320312 -11.230469 2.296875 -11.261719 1.316406 -11.398438 C 1.4375 -7.605469 1.4375 -3.792969 1.316406 0 Z M 1.316406 0 "/></g></g></g><g fill="#000000" fill-opacity="1"><g transform="translate(153.735958, 189.537204)"><g><path d="M 10.863281 0 C 10.449219 -1.332031 10.359375 -2.769531 10.34375 -4.726562 C 10.34375 -7.511719 8.597656 -8.492188 5.601562 -8.492188 C 3.59375 -8.492188 2.082031 -8 0.933594 -7.464844 C 1.039062 -6.945312 1.039062 -5.875 0.933594 -5.277344 C 1.820312 -6.136719 3.472656 -6.777344 5.246094 -6.777344 C 7.449219 -6.777344 7.925781 -5.875 8 -4.5 L 5.339844 -4.5 C 2.203125 -4.5 0.671875 -3.550781 0.671875 -2.050781 C 0.671875 -0.765625 1.746094 0.230469 3.976562 0.230469 C 6.074219 0.230469 7.175781 -0.613281 8.03125 -1.898438 C 8.078125 -1.285156 8.171875 -0.644531 8.382812 0 Z M 5.171875 -1.390625 C 3.917969 -1.390625 3.257812 -1.820312 3.257812 -2.554688 C 3.257812 -3.488281 4.453125 -3.855469 6.714844 -3.855469 L 8.015625 -3.855469 L 8.015625 -3.59375 C 8.015625 -3.183594 8 -2.722656 8.015625 -2.25 C 7.238281 -1.730469 6.273438 -1.390625 5.171875 -1.390625 Z M 5.171875 -1.390625 "/></g></g></g><g fill="#000000" fill-opacity="1"><g transform="translate(165.251495, 189.537204)"><g><path d="M 3.808594 0 C 3.566406 -1.070312 3.566406 -2.035156 3.566406 -3.105469 C 3.566406 -5.019531 4.453125 -6.121094 6.195312 -6.121094 C 6.578125 -6.121094 7.070312 -6.042969 7.632812 -5.875 C 7.4375 -6.777344 7.4375 -7.710938 7.632812 -8.355469 C 6.195312 -8.707031 4.375 -7.804688 3.535156 -5.1875 L 3.335938 -5.1875 C 3.382812 -6.335938 3.488281 -7.296875 3.71875 -8.492188 C 3.058594 -8.199219 1.941406 -8.015625 0.949219 -7.957031 C 1.300781 -5.277344 1.300781 -2.539062 0.949219 0 Z M 3.808594 0 "/></g></g></g><g fill="#000000" fill-opacity="1"><g transform="translate(173.12733, 189.537204)"><g><path d="M 3.808594 0 C 3.566406 -1.070312 3.566406 -2.035156 3.566406 -3.105469 C 3.566406 -5.019531 4.453125 -6.121094 6.195312 -6.121094 C 6.578125 -6.121094 7.070312 -6.042969 7.632812 -5.875 C 7.4375 -6.777344 7.4375 -7.710938 7.632812 -8.355469 C 6.195312 -8.707031 4.375 -7.804688 3.535156 -5.1875 L 3.335938 -5.1875 C 3.382812 -6.335938 3.488281 -7.296875 3.71875 -8.492188 C 3.058594 -8.199219 1.941406 -8.015625 0.949219 -7.957031 C 1.300781 -5.277344 1.300781 -2.539062 0.949219 0 Z M 3.808594 0 "/></g></g></g><g fill="#000000" fill-opacity="1"><g transform="translate(181.003165, 189.537204)"><g><path d="M 8.15625 -0.703125 C 8.15625 1.101562 6.855469 1.757812 5.09375 1.757812 C 3.609375 1.757812 1.820312 1.285156 0.839844 0.460938 C 1.023438 1.039062 1.023438 1.929688 0.839844 2.480469 C 2.140625 3.136719 3.75 3.457031 5.324219 3.457031 C 10.21875 3.457031 10.390625 0.460938 10.390625 -1.300781 L 10.390625 -8.324219 C 9.53125 -8.046875 8.691406 -7.957031 7.847656 -7.957031 L 7.847656 -4.773438 C 7.847656 -2.847656 6.992188 -1.882812 5.308594 -1.882812 C 3.6875 -1.882812 3.214844 -3.089844 3.214844 -4.5 L 3.214844 -8.324219 C 2.371094 -8.046875 1.515625 -7.957031 0.65625 -7.957031 C 0.933594 -6.609375 0.871094 -4.941406 0.871094 -3.351562 C 0.871094 -1.5 1.699219 -0.078125 3.960938 -0.078125 C 5.980469 -0.078125 7.375 -1.054688 7.957031 -2.875 L 8.15625 -2.875 Z M 8.15625 -0.703125 "/></g></g></g><g fill="#000000" fill-opacity="1"><g transform="translate(192.381075, 189.537204)"><g/></g></g><g fill="#000000" fill-opacity="1"><g transform="translate(196.968942, 189.537204)"><g><path d="M 14.917969 0 C 13.066406 -3.792969 11.320312 -7.605469 9.714844 -11.398438 C 8.613281 -11.199219 6.488281 -11.261719 5.386719 -11.398438 C 3.777344 -7.605469 2.066406 -3.792969 0.214844 0 L 3.214844 0 C 3.519531 -0.734375 3.839844 -1.5625 4.191406 -2.402344 C 6.179688 -2.449219 8.90625 -2.449219 10.878906 -2.386719 C 11.199219 -1.574219 11.492188 -0.765625 11.78125 0 Z M 4.835938 -3.960938 C 5.84375 -6.410156 6.871094 -8.828125 7.496094 -9.992188 C 8.476562 -8.183594 9.410156 -6.074219 10.25 -3.960938 C 8.613281 -3.917969 6.472656 -3.917969 4.835938 -3.960938 Z M 4.835938 -3.960938 "/></g></g></g><g fill="#000000" fill-opacity="1"><g transform="translate(212.093602, 189.537204)"><g><path d="M 3.808594 0 C 3.566406 -1.070312 3.566406 -2.035156 3.566406 -3.105469 C 3.566406 -5.019531 4.453125 -6.121094 6.195312 -6.121094 C 6.578125 -6.121094 7.070312 -6.042969 7.632812 -5.875 C 7.4375 -6.777344 7.4375 -7.710938 7.632812 -8.355469 C 6.195312 -8.707031 4.375 -7.804688 3.535156 -5.1875 L 3.335938 -5.1875 C 3.382812 -6.335938 3.488281 -7.296875 3.71875 -8.492188 C 3.058594 -8.199219 1.941406 -8.015625 0.949219 -7.957031 C 1.300781 -5.277344 1.300781 -2.539062 0.949219 0 Z M 3.808594 0 "/></g></g></g><g fill="#000000" fill-opacity="1"><g transform="translate(219.969437, 189.537204)"><g><path d="M 3.808594 0 C 3.566406 -1.070312 3.566406 -2.035156 3.566406 -3.105469 C 3.566406 -5.019531 4.453125 -6.121094 6.195312 -6.121094 C 6.578125 -6.121094 7.070312 -6.042969 7.632812 -5.875 C 7.4375 -6.777344 7.4375 -7.710938 7.632812 -8.355469 C 6.195312 -8.707031 4.375 -7.804688 3.535156 -5.1875 L 3.335938 -5.1875 C 3.382812 -6.335938 3.488281 -7.296875 3.71875 -8.492188 C 3.058594 -8.199219 1.941406 -8.015625 0.949219 -7.957031 C 1.300781 -5.277344 1.300781 -2.539062 0.949219 0 Z M 3.808594 0 "/></g></g></g><g fill="#000000" fill-opacity="1"><g transform="translate(227.845271, 189.537204)"><g><path d="M 2.28125 -9.425781 C 3.410156 -9.425781 3.992188 -9.746094 3.992188 -10.480469 C 3.992188 -11.214844 3.410156 -11.566406 2.28125 -11.566406 C 1.238281 -11.566406 0.703125 -11.214844 0.703125 -10.480469 C 0.703125 -9.746094 1.238281 -9.425781 2.28125 -9.425781 Z M 0.980469 -8.230469 C 1.179688 -5.402344 1.179688 -2.800781 0.980469 0 L 3.609375 0 C 3.425781 -2.816406 3.425781 -5.417969 3.609375 -8.230469 C 2.722656 -8.046875 1.898438 -8.078125 0.980469 -8.230469 Z M 0.980469 -8.230469 "/></g></g></g><g fill="#000000" fill-opacity="1"><g transform="translate(232.540187, 189.537204)"><g><path d="M 0.949219 0 L 3.609375 0 L 3.609375 -3.304688 C 3.609375 -5.234375 4.511719 -6.578125 6.152344 -6.578125 C 7.589844 -6.578125 8.355469 -5.417969 8.355469 -3.59375 L 8.355469 0 L 10.953125 0 C 10.695312 -1.484375 10.757812 -3.367188 10.757812 -4.988281 C 10.757812 -6.886719 9.960938 -8.507812 7.589844 -8.507812 C 5.601562 -8.507812 4.117188 -7.113281 3.519531 -5.246094 L 3.304688 -5.246094 C 3.382812 -6.410156 3.503906 -7.34375 3.792969 -8.539062 C 3.152344 -8.246094 1.972656 -8.0625 0.949219 -8 C 1.285156 -4.851562 1.285156 -2.417969 0.949219 0 Z M 0.949219 0 "/></g></g></g><g fill="#000000" fill-opacity="1"><g transform="translate(244.331, 189.537204)"><g><path d="M 11.078125 -8.523438 C 10.464844 -8.230469 9.425781 -8.046875 8.460938 -7.988281 C 8.691406 -7.054688 8.707031 -6.410156 8.78125 -5.585938 L 8.582031 -5.585938 C 7.957031 -7.082031 6.5625 -8.507812 4.46875 -8.507812 C 2.1875 -8.507812 0.535156 -6.824219 0.535156 -4.375 C 0.535156 -1.757812 2.417969 -0.09375 5.339844 -0.09375 C 6.761719 -0.09375 7.863281 -0.488281 8.492188 -1.238281 L 8.492188 -0.75 C 8.492188 1.085938 7.144531 1.757812 5.554688 1.757812 C 4.023438 1.757812 2.140625 1.285156 1.132812 0.472656 C 1.332031 1.039062 1.332031 1.929688 1.132812 2.480469 C 2.433594 3.136719 4.085938 3.457031 5.769531 3.457031 C 10.585938 3.457031 10.910156 0.582031 10.910156 -1.332031 C 10.910156 -2.921875 10.847656 -6.121094 11.078125 -8.523438 Z M 6.164062 -1.421875 C 4.421875 -1.421875 3.015625 -2.25 3.015625 -4.191406 C 3.015625 -5.769531 3.960938 -6.824219 5.644531 -6.824219 C 7.988281 -6.824219 8.492188 -4.910156 8.492188 -3.242188 L 8.492188 -2.265625 C 7.789062 -1.605469 6.914062 -1.421875 6.164062 -1.421875 Z M 6.164062 -1.421875 "/></g></g></g><g fill="#000000" fill-opacity="1"><g transform="translate(256.27474, 189.537204)"><g><path d="M 4.453125 -6.761719 C 5.90625 -6.761719 7.359375 -6.703125 8.644531 -6.578125 C 8.582031 -7.222656 8.582031 -7.605469 8.644531 -8.230469 C 7.375 -8.109375 5.921875 -8.046875 4.484375 -8.046875 C 4.5 -9.101562 4.527344 -10.175781 4.558594 -11.183594 C 3.808594 -10.816406 2.953125 -10.679688 1.941406 -10.574219 C 2.019531 -9.914062 2.066406 -9.027344 2.113281 -8.09375 C 1.363281 -8.125 0.628906 -8.171875 -0.0625 -8.230469 C 0 -7.789062 0 -7.023438 -0.0625 -6.578125 C 0.644531 -6.640625 1.378906 -6.6875 2.15625 -6.714844 C 2.203125 -5.019531 2.203125 -3.398438 2.203125 -2.832031 C 2.203125 -0.503906 3.871094 0.167969 5.660156 0.183594 C 6.714844 0.183594 7.804688 -0.046875 8.613281 -0.289062 C 8.492188 -0.855469 8.523438 -1.453125 8.644531 -2.019531 C 7.957031 -1.835938 7.097656 -1.589844 6.335938 -1.605469 C 5.234375 -1.621094 4.34375 -2.125 4.375 -3.933594 C 4.390625 -4.773438 4.421875 -5.753906 4.453125 -6.761719 Z M 4.453125 -6.761719 "/></g></g></g><g fill="#000000" fill-opacity="1"><g transform="translate(265.251656, 189.537204)"><g><path d="M 5.859375 0.214844 C 9.195312 0.214844 11.167969 -1.40625 11.167969 -4.144531 C 11.167969 -6.886719 9.195312 -8.492188 5.859375 -8.492188 C 2.507812 -8.492188 0.535156 -6.886719 0.535156 -4.144531 C 0.535156 -1.40625 2.507812 0.214844 5.859375 0.214844 Z M 5.859375 -1.316406 C 4.070312 -1.316406 3.042969 -2.339844 3.042969 -4.144531 C 3.042969 -5.8125 4.070312 -6.855469 5.859375 -6.855469 C 7.621094 -6.855469 8.660156 -5.8125 8.660156 -4.144531 C 8.660156 -2.339844 7.621094 -1.316406 5.859375 -1.316406 Z M 5.859375 -1.316406 "/></g></g></g><g fill="#000000" fill-opacity="1"><g transform="translate(276.95071, 189.537204)"><g><path d="M 0.949219 0 L 3.609375 0 L 3.609375 -3.304688 C 3.609375 -5.234375 4.511719 -6.578125 6.152344 -6.578125 C 7.589844 -6.578125 8.355469 -5.417969 8.355469 -3.59375 L 8.355469 0 L 10.953125 0 C 10.695312 -1.484375 10.757812 -3.367188 10.757812 -4.988281 C 10.757812 -6.886719 9.960938 -8.507812 7.589844 -8.507812 C 5.601562 -8.507812 4.117188 -7.113281 3.519531 -5.246094 L 3.304688 -5.246094 C 3.382812 -6.410156 3.503906 -7.34375 3.792969 -8.539062 C 3.152344 -8.246094 1.972656 -8.0625 0.949219 -8 C 1.285156 -4.851562 1.285156 -2.417969 0.949219 0 Z M 0.949219 0 "/></g></g></g><g fill="#000000" fill-opacity="1"><g transform="translate(139.651212, 206.469872)"><g><path d="M 5.066406 -6.933594 C 3.671875 -6.933594 2.417969 -6.914062 0.996094 -6.921875 C 1.023438 -4.742188 1.023438 -1.925781 0.996094 0 L 1.59375 0 L 1.566406 -2.304688 L 5.09375 -2.304688 C 7.046875 -2.304688 8.03125 -3.214844 8.03125 -4.601562 C 8.03125 -6.109375 6.980469 -6.933594 5.066406 -6.933594 Z M 5 -2.730469 C 3.832031 -2.730469 2.722656 -2.742188 1.566406 -2.742188 C 1.554688 -3.992188 1.554688 -5.234375 1.566406 -6.476562 L 4.988281 -6.476562 C 6.554688 -6.476562 7.453125 -5.8125 7.453125 -4.570312 C 7.453125 -3.367188 6.5625 -2.730469 5 -2.730469 Z M 5 -2.730469 "/></g></g></g><g fill="#000000" fill-opacity="1"><g transform="translate(154.68721, 206.469872)"><g><path d="M 0.929688 0 L 1.488281 0 L 1.488281 -2.019531 C 1.488281 -3.339844 2.34375 -4.703125 3.878906 -4.703125 C 5.28125 -4.703125 5.777344 -3.804688 5.777344 -2.675781 L 5.777344 0 L 6.34375 0 C 6.257812 -0.816406 6.296875 -2.039062 6.296875 -2.875 C 6.296875 -4.085938 5.792969 -5.140625 4.097656 -5.140625 C 2.949219 -5.140625 1.800781 -4.285156 1.488281 -3.035156 L 1.449219 -3.035156 C 1.460938 -3.71875 1.480469 -6.773438 1.527344 -7.464844 C 1.367188 -7.425781 1.136719 -7.398438 0.929688 -7.386719 C 0.988281 -4.46875 0.976562 -1.449219 0.929688 0 Z M 0.929688 0 "/></g></g></g><g fill="#000000" fill-opacity="1"><g transform="translate(168.395455, 206.469872)"><g><path d="M 3.632812 0.0859375 C 5.558594 0.0859375 6.695312 -0.890625 6.695312 -2.5625 C 6.695312 -4.164062 5.558594 -5.132812 3.632812 -5.132812 C 1.699219 -5.132812 0.558594 -4.164062 0.558594 -2.5625 C 0.558594 -0.890625 1.699219 0.0859375 3.632812 0.0859375 Z M 3.621094 -0.292969 C 2.03125 -0.292969 1.121094 -1.121094 1.121094 -2.5625 C 1.121094 -3.90625 2.03125 -4.734375 3.621094 -4.734375 C 5.199219 -4.734375 6.136719 -3.90625 6.136719 -2.5625 C 6.136719 -1.121094 5.199219 -0.292969 3.621094 -0.292969 Z M 3.621094 -0.292969 "/></g></g></g><g fill="#000000" fill-opacity="1"><g transform="translate(182.198544, 206.469872)"><g><path d="M 1.992188 -4.675781 C 3.007812 -4.683594 4.039062 -4.675781 5.027344 -4.65625 C 5.015625 -4.789062 5.015625 -4.914062 5.027344 -5.046875 C 4.039062 -5.027344 3.015625 -5.015625 2 -5.015625 C 2 -5.625 2.011719 -6.222656 2.011719 -6.820312 C 1.839844 -6.773438 1.640625 -6.753906 1.441406 -6.742188 L 1.46875 -5.027344 C 0.96875 -5.027344 0.472656 -5.035156 -0.0078125 -5.046875 C 0 -4.933594 0 -4.769531 -0.0078125 -4.65625 C 0.472656 -4.667969 0.96875 -4.675781 1.46875 -4.675781 L 1.46875 -1.765625 C 1.46875 -0.371094 2.34375 0.0585938 3.308594 0.0859375 C 3.917969 0.105469 4.550781 -0.046875 5.027344 -0.226562 C 5.007812 -0.371094 5.015625 -0.539062 5.027344 -0.703125 C 4.523438 -0.457031 3.9375 -0.304688 3.40625 -0.332031 C 2.597656 -0.378906 1.964844 -0.804688 1.980469 -1.953125 C 1.980469 -2.84375 1.992188 -3.753906 1.992188 -4.675781 Z M 1.992188 -4.675781 "/></g></g></g><g fill="#000000" fill-opacity="1"><g transform="translate(194.047949, 206.469872)"><g><path d="M 3.632812 0.0859375 C 5.558594 0.0859375 6.695312 -0.890625 6.695312 -2.5625 C 6.695312 -4.164062 5.558594 -5.132812 3.632812 -5.132812 C 1.699219 -5.132812 0.558594 -4.164062 0.558594 -2.5625 C 0.558594 -0.890625 1.699219 0.0859375 3.632812 0.0859375 Z M 3.621094 -0.292969 C 2.03125 -0.292969 1.121094 -1.121094 1.121094 -2.5625 C 1.121094 -3.90625 2.03125 -4.734375 3.621094 -4.734375 C 5.199219 -4.734375 6.136719 -3.90625 6.136719 -2.5625 C 6.136719 -1.121094 5.199219 -0.292969 3.621094 -0.292969 Z M 3.621094 -0.292969 "/></g></g></g><g fill="#000000" fill-opacity="1"><g transform="translate(207.851036, 206.469872)"><g><path d="M 5.792969 -5.007812 C 5.824219 -4.363281 5.824219 -3.71875 5.832031 -3.160156 L 5.792969 -3.160156 C 5.445312 -4.230469 4.628906 -5.140625 3.160156 -5.140625 C 1.613281 -5.140625 0.558594 -4.097656 0.558594 -2.609375 C 0.558594 -1.015625 1.574219 0.0742188 3.453125 0.0742188 C 4.535156 0.0742188 5.414062 -0.425781 5.8125 -1.214844 L 5.8125 -0.636719 C 5.8125 1.136719 4.589844 1.648438 3.527344 1.648438 C 2.550781 1.648438 1.480469 1.367188 0.871094 0.949219 C 0.890625 1.101562 0.890625 1.308594 0.871094 1.449219 C 1.613281 1.859375 2.523438 2.058594 3.546875 2.058594 C 5.859375 2.058594 6.316406 0.492188 6.316406 -0.710938 C 6.316406 -2.066406 6.316406 -3.621094 6.34375 -5.082031 C 6.183594 -5.046875 5.992188 -5.015625 5.792969 -5.007812 Z M 3.574219 -0.292969 C 2.246094 -0.292969 1.128906 -1.015625 1.128906 -2.570312 C 1.128906 -3.839844 1.980469 -4.734375 3.328125 -4.734375 C 5.585938 -4.734375 5.8125 -2.675781 5.8125 -1.878906 L 5.8125 -1.535156 C 5.300781 -0.550781 4.410156 -0.292969 3.574219 -0.292969 Z M 3.574219 -0.292969 "/></g></g></g><g fill="#000000" fill-opacity="1"><g transform="translate(221.644647, 206.469872)"><g><path d="M 1.527344 0 C 1.488281 -0.65625 1.488281 -1.289062 1.488281 -1.945312 C 1.488281 -3.964844 2.769531 -4.570312 3.859375 -4.570312 C 4.003906 -4.570312 4.164062 -4.550781 4.324219 -4.523438 C 4.304688 -4.714844 4.304688 -4.914062 4.324219 -5.074219 C 3.234375 -5.132812 1.914062 -4.703125 1.488281 -3.015625 L 1.441406 -3.015625 C 1.449219 -3.699219 1.46875 -4.390625 1.507812 -5.074219 C 1.355469 -5.035156 1.136719 -5.015625 0.929688 -5.007812 C 0.988281 -3.347656 0.988281 -1.78125 0.929688 0 Z M 1.527344 0 "/></g></g></g><g fill="#000000" fill-opacity="1"><g transform="translate(232.697406, 206.469872)"><g><path d="M 6.542969 0 C 6.191406 -1.054688 6.203125 -1.78125 6.183594 -2.894531 C 6.164062 -4.523438 5.378906 -5.140625 3.527344 -5.140625 C 2.371094 -5.140625 1.449219 -4.835938 0.796875 -4.46875 C 0.816406 -4.324219 0.816406 -4.097656 0.796875 -3.945312 C 1.328125 -4.382812 2.285156 -4.734375 3.421875 -4.734375 C 5.359375 -4.734375 5.644531 -3.953125 5.679688 -2.703125 L 3.421875 -2.703125 C 1.632812 -2.703125 0.691406 -2.230469 0.691406 -1.242188 C 0.691406 -0.492188 1.242188 0.125 2.597656 0.125 C 4.183594 0.125 5.160156 -0.570312 5.710938 -1.308594 C 5.746094 -0.890625 5.824219 -0.445312 5.992188 0 Z M 2.855469 -0.285156 C 1.90625 -0.285156 1.269531 -0.605469 1.269531 -1.328125 C 1.269531 -2.257812 2.371094 -2.445312 3.964844 -2.445312 L 5.679688 -2.445312 L 5.679688 -2.398438 C 5.679688 -2.144531 5.671875 -1.832031 5.691406 -1.488281 C 5.132812 -0.84375 4.210938 -0.285156 2.855469 -0.285156 Z M 2.855469 -0.285156 "/></g></g></g><g fill="#000000" fill-opacity="1"><g transform="translate(246.434101, 206.469872)"><g><path d="M 4.078125 -5.132812 C 2.609375 -5.132812 1.792969 -4.230469 1.441406 -3.160156 L 1.402344 -3.160156 C 1.414062 -3.738281 1.421875 -4.390625 1.460938 -5.082031 C 1.308594 -5.046875 1.089844 -5.015625 0.882812 -5.015625 C 0.9375 -2.476562 0.929688 0.976562 0.882812 1.898438 C 1.070312 1.878906 1.242188 1.878906 1.460938 1.898438 C 1.433594 0.871094 1.421875 -0.191406 1.421875 -1.222656 C 1.839844 -0.417969 2.789062 0.125 3.785156 0.125 C 5.664062 0.125 6.675781 -1.015625 6.675781 -2.609375 C 6.675781 -4.097656 5.625 -5.132812 4.078125 -5.132812 Z M 3.660156 -0.238281 C 2.84375 -0.238281 1.980469 -0.550781 1.421875 -1.460938 L 1.421875 -1.867188 C 1.421875 -2.675781 1.648438 -4.742188 3.90625 -4.742188 C 5.265625 -4.742188 6.117188 -3.851562 6.117188 -2.578125 C 6.117188 -1.003906 5 -0.238281 3.660156 -0.238281 Z M 3.660156 -0.238281 "/></g></g></g><g fill="#000000" fill-opacity="1"><g transform="translate(260.218218, 206.469872)"><g><path d="M 0.929688 0 L 1.488281 0 L 1.488281 -2.019531 C 1.488281 -3.339844 2.34375 -4.703125 3.878906 -4.703125 C 5.28125 -4.703125 5.777344 -3.804688 5.777344 -2.675781 L 5.777344 0 L 6.34375 0 C 6.257812 -0.816406 6.296875 -2.039062 6.296875 -2.875 C 6.296875 -4.085938 5.792969 -5.140625 4.097656 -5.140625 C 2.949219 -5.140625 1.800781 -4.285156 1.488281 -3.035156 L 1.449219 -3.035156 C 1.460938 -3.71875 1.480469 -6.773438 1.527344 -7.464844 C 1.367188 -7.425781 1.136719 -7.398438 0.929688 -7.386719 C 0.988281 -4.46875 0.976562 -1.449219 0.929688 0 Z M 0.929688 0 "/></g></g></g><g fill="#000000" fill-opacity="1"><g transform="translate(273.926462, 206.469872)"><g><path d="M 5.765625 -0.539062 C 5.765625 1.175781 4.808594 1.648438 3.300781 1.648438 C 2.351562 1.648438 1.289062 1.355469 0.75 0.921875 C 0.769531 1.089844 0.769531 1.300781 0.75 1.449219 C 1.527344 1.859375 2.457031 2.058594 3.367188 2.058594 C 6.203125 2.058594 6.222656 0.152344 6.222656 -0.617188 L 6.222656 -5.054688 C 6.042969 -5.015625 5.851562 -5.007812 5.671875 -5.007812 L 5.671875 -2.976562 C 5.671875 -0.957031 4.535156 -0.359375 3.207031 -0.359375 C 1.433594 -0.359375 1.367188 -1.6875 1.367188 -2.324219 L 1.367188 -5.054688 C 1.183594 -5.015625 0.996094 -5.007812 0.816406 -5.007812 C 0.855469 -4.085938 0.84375 -3.121094 0.84375 -2.171875 C 0.84375 -0.757812 1.46875 0.0585938 2.921875 0.0585938 C 4.484375 0.0585938 5.398438 -0.558594 5.710938 -2.058594 L 5.765625 -2.058594 Z M 5.765625 -0.539062 "/></g></g></g></svg>